<svg width="24" height="24" viewBox="0 0 24 24" fill="none" xmlns="http://www.w3.org/2000/svg">
<path fill-rule="evenodd" clip-rule="evenodd" d="M8.88002 12.65C8.13104 12.65 7.53002 13.251 7.53002 14V15.32C7.53002 16.069 8.13104 16.67 8.88002 16.67H11.2C11.949 16.67 12.55 16.069 12.55 15.32V14C12.55 13.251 11.949 12.65 11.2 12.65H8.88002ZM8.83002 14C8.83002 13.9812 8.83633 13.9704 8.84339 13.9634C8.85046 13.9563 8.86122 13.95 8.88002 13.95H11.2C11.2188 13.95 11.2296 13.9563 11.2367 13.9634C11.2437 13.9704 11.25 13.9812 11.25 14V15.32C11.25 15.3388 11.2437 15.3496 11.2367 15.3566C11.2296 15.3637 11.2188 15.37 11.2 15.37H8.88002C8.86122 15.37 8.85046 15.3637 8.84339 15.3566C8.83633 15.3496 8.83002 15.3388 8.83002 15.32V14Z" fill="#505050"/>
<path fill-rule="evenodd" clip-rule="evenodd" d="M8.78998 2.6C8.78998 2.24101 8.49896 1.95 8.13998 1.95C7.78099 1.95 7.48998 2.24101 7.48998 2.6V3.99H7C5.34 3.99 4 5.33 4 6.99V17.12C4 18.78 5.34 20.12 7 20.12H17C18.66 20.12 20 18.78 20 17.12V6.99C20 5.33 18.65 3.99 17 3.99H16.5V2.6C16.5 2.24101 16.209 1.95 15.85 1.95C15.491 1.95 15.2 2.24101 15.2 2.6V3.99H12.65V2.6C12.65 2.24101 12.359 1.95 12 1.95C11.641 1.95 11.35 2.24101 11.35 2.6V3.99H8.78998V2.6ZM7.48998 5.29V6.86C7.48998 7.21898 7.78099 7.51 8.13998 7.51C8.49896 7.51 8.78998 7.21898 8.78998 6.86V5.29H11.35V6.86C11.35 7.21898 11.641 7.51 12 7.51C12.359 7.51 12.65 7.21898 12.65 6.86V5.29H15.2V6.86C15.2 7.21898 15.491 7.51 15.85 7.51C16.209 7.51 16.5 7.21898 16.5 6.86V5.29H17C17.94 5.29 18.7 6.05 18.7 6.99V9.35002H5.3V6.99C5.3 6.05 6.06 5.29 7 5.29H7.48998ZM5.3 10.65H18.7V17.12C18.7 18.06 17.94 18.82 17 18.82H7C6.06 18.82 5.3 18.06 5.3 17.12V10.65Z" fill="#505050"/>
</svg>
