<svg width="24" height="24" viewBox="0 0 24 24" fill="none" xmlns="http://www.w3.org/2000/svg">
<path d="M6.40942 5.49012C6.15558 5.23628 5.74403 5.23628 5.49019 5.49012C5.23634 5.74397 5.23634 6.15552 5.49019 6.40936L11.0808 12L5.59065 17.4901C5.33681 17.744 5.33681 18.1555 5.59065 18.4094C5.84449 18.6632 6.25605 18.6632 6.50989 18.4094L12 12.9192L17.4902 18.4094C17.744 18.6632 18.1556 18.6632 18.4094 18.4094C18.6633 18.1555 18.6633 17.744 18.4094 17.4901L12.9193 12L18.5099 6.40936C18.7637 6.15552 18.7637 5.74397 18.5099 5.49012C18.256 5.23628 17.8445 5.23628 17.5906 5.49012L12 11.0807L6.40942 5.49012Z" fill="#505050"/>
</svg>
