<svg width="20" height="20" viewBox="0 0 20 20" fill="none" xmlns="http://www.w3.org/2000/svg">
<path fill-rule="evenodd" clip-rule="evenodd" d="M14.7084 2.79169C16.0891 2.79169 17.2084 3.91098 17.2084 5.29169V13.625C17.2084 15.0057 16.0891 16.125 14.7084 16.125H8.04171C6.66099 16.125 5.54171 15.0057 5.54171 13.625V5.29169C5.54171 3.91098 6.66099 2.79169 8.04171 2.79169H14.7084ZM8.04171 3.87502H14.7084C15.4908 3.87502 16.125 4.50928 16.125 5.29169V13.625C16.125 14.4074 15.4908 15.0417 14.7084 15.0417H8.04171C7.2593 15.0417 6.62504 14.4074 6.62504 13.625V5.29169C6.62504 4.50928 7.2593 3.87502 8.04171 3.87502ZM3.33337 7.79169C3.33337 7.49253 3.57589 7.25002 3.87504 7.25002C4.17419 7.25002 4.41671 7.49253 4.41671 7.79169V15.625C4.41671 16.5225 5.14424 17.25 6.04171 17.25H13.0417C13.3409 17.25 13.5834 17.4925 13.5834 17.7917C13.5834 18.0908 13.3409 18.3334 13.0417 18.3334H6.04171C4.54594 18.3334 3.33337 17.1208 3.33337 15.625V7.79169ZM11.6871 6.58126C11.6871 6.88041 11.4446 7.12292 11.1455 7.12292L8.89201 7.12292C8.59285 7.12291 8.35034 6.8804 8.35034 6.58125C8.35034 6.28209 8.59285 6.03958 8.89201 6.03958L11.1455 6.03959C11.4446 6.03959 11.6871 6.2821 11.6871 6.58126ZM13.8569 10.0478C14.156 10.0478 14.3986 9.80531 14.3986 9.50616C14.3986 9.207 14.156 8.96449 13.8569 8.96449L8.89201 8.96449C8.59285 8.96449 8.35034 9.207 8.35034 9.50616C8.35034 9.80531 8.59285 10.0478 8.89201 10.0478L13.8569 10.0478ZM14.3986 12.4311C14.3986 12.7302 14.156 12.9728 13.8569 12.9728L8.89201 12.9728C8.59285 12.9728 8.35034 12.7302 8.35034 12.4311C8.35034 12.1319 8.59285 11.8894 8.89201 11.8894L13.8569 11.8894C14.156 11.8894 14.3986 12.1319 14.3986 12.4311Z" fill="#505050"/>
</svg>
