<svg width="20" height="20" viewBox="0 0 20 20" fill="none" xmlns="http://www.w3.org/2000/svg">
<g clip-path="url(#clip0_2_118)">
<path d="M10 20C15.5229 20 20 15.5229 20 10C20 4.47708 15.5229 0 10 0C4.47708 0 0 4.47708 0 10C0 15.5229 4.47708 20 10 20Z" fill="#505050"/>
<path d="M5.68749 5.48709V8.88876C6.2054 8.27126 6.82624 7.96042 7.54624 7.96042C7.91707 7.96042 8.24915 8.03126 8.54707 8.17167C8.84582 8.31126 9.06915 8.49042 9.21999 8.70792C9.37165 8.92751 9.47415 9.16792 9.52957 9.43292C9.58457 9.69667 9.61207 10.1071 9.61207 10.6638V14.3008H8.0029V11.025C8.0029 10.375 7.97374 9.96334 7.91249 9.78834C7.8551 9.61691 7.74126 9.47002 7.58957 9.37167C7.43457 9.26709 7.24165 9.21542 7.00874 9.21542C6.74207 9.21542 6.5029 9.28209 6.29499 9.41459C6.08249 9.54792 5.92999 9.74709 5.83332 10.0133C5.73499 10.28 5.68582 10.6738 5.68749 11.195L5.68582 14.3008H4.07874V5.48709H5.6879H5.68749ZM12.0237 5.48709V8.88876C12.5421 8.27126 13.1625 7.96042 13.8821 7.96042C14.2517 7.96042 14.5862 8.03126 14.8846 8.17167C15.1821 8.31126 15.4054 8.49042 15.5554 8.70792C15.7068 8.92605 15.8121 9.17274 15.865 9.43292C15.9204 9.69667 15.9479 10.1071 15.9479 10.6638V14.3008H14.3404V11.025C14.3404 10.375 14.31 9.96334 14.2487 9.78834C14.1913 9.61668 14.0771 9.46971 13.925 9.37167C13.7717 9.26709 13.5771 9.21542 13.3442 9.21542C13.0779 9.21542 12.8387 9.28209 12.6304 9.41459C12.4208 9.54792 12.2675 9.74709 12.1696 10.0133C12.0729 10.28 12.0237 10.6738 12.0237 11.195V14.3008H10.4167V5.48709H12.0237Z" fill="white"/>
</g>
<defs>
<clipPath id="clip0_2_118">
<rect width="20" height="20" fill="white"/>
</clipPath>
</defs>
</svg>
