<svg width="20" height="20" viewBox="0 0 20 20" fill="none" xmlns="http://www.w3.org/2000/svg">
<path fill-rule="evenodd" clip-rule="evenodd" d="M7.74398 6.79164C7.74398 7.94223 8.67672 8.87497 9.82731 8.87497C10.9779 8.87497 11.9106 7.94223 11.9106 6.79164C11.9106 5.64104 10.9779 4.7083 9.82731 4.7083C8.67672 4.7083 7.74398 5.64104 7.74398 6.79164ZM8.82731 6.79164C8.82731 7.34392 9.27503 7.79164 9.82731 7.79164C10.3796 7.79164 10.8273 7.34392 10.8273 6.79164C10.8273 6.23935 10.3796 5.79164 9.82731 5.79164C9.27503 5.79164 8.82731 6.23935 8.82731 6.79164Z" fill="#505050"/>
<path fill-rule="evenodd" clip-rule="evenodd" d="M17.2084 5C17.2084 3.61929 16.0891 2.5 14.7084 2.5H8.04171C6.661 2.5 5.54171 3.61929 5.54171 5V13.3333C5.54171 14.714 6.661 15.8333 8.04171 15.8333H8.04273L8.04171 15.835H14.7084C16.0891 15.835 17.2084 14.7157 17.2084 13.335V5ZM14.7084 14.75C15.4908 14.75 16.125 14.1157 16.125 13.3333V12.1626L14.6466 10.0242C14.201 9.37965 13.2397 9.40675 12.8311 10.0753L9.97438 14.75H14.7084ZM15.5377 9.4081L16.125 10.2576V5C16.125 4.2176 15.4908 3.58333 14.7084 3.58333H8.04171C7.2593 3.58333 6.62504 4.2176 6.62504 5V13.3333C6.62504 14.1157 7.2593 14.75 8.04171 14.75H8.70477L11.9067 9.51043C12.7239 8.17325 14.6465 8.11907 15.5377 9.4081Z" fill="#505050"/>
<path d="M3.87504 6.95833C3.57589 6.95833 3.33337 7.20085 3.33337 7.5V15.3333C3.33337 16.8291 4.54594 18.0417 6.04171 18.0417H13.0417C13.3409 18.0417 13.5834 17.7992 13.5834 17.5C13.5834 17.2008 13.3409 16.9583 13.0417 16.9583H6.04171C5.14424 16.9583 4.41671 16.2308 4.41671 15.3333V7.5C4.41671 7.20085 4.17419 6.95833 3.87504 6.95833Z" fill="#505050"/>
</svg>
