<svg width="200" height="200" viewBox="0 0 200 200" fill="none" xmlns="http://www.w3.org/2000/svg">
<path d="M114.821 146.829C108.247 149.851 100.933 151.583 93.1666 151.583C64.7363 151.583 41.5833 128.503 41.5833 100C41.5833 71.4916 64.6582 48.4167 93.1666 48.4167C121.66 48.4167 144.667 71.5594 144.667 100C144.667 100.911 144.643 101.817 144.596 102.717L135.5 93C134.417 91.8334 132.917 91.25 131.5 91.25C130.167 91.25 128.917 91.6667 128 92.75C125.833 94.8334 125.667 98.25 127.75 100.417L146 120C148.25 122.5 152.167 122.5 154.5 120L172.75 100.417C174.833 98.25 174.667 94.8334 172.5 92.75C170.333 90.6667 166.917 90.8334 164.833 93L155.427 103.048C155.476 102.036 155.5 101.019 155.5 100C155.5 65.6073 127.674 37.5834 93.1666 37.5834C58.6751 37.5834 30.75 65.5085 30.75 100C30.75 134.497 58.7636 162.417 93.1666 162.417C102.567 162.417 111.419 160.316 119.346 156.671C122.064 155.422 123.254 152.205 122.005 149.487C120.755 146.769 117.539 145.579 114.821 146.829Z" fill="#505050"/>
</svg>
