<svg width="20" height="20" viewBox="0 0 20 20" fill="none" xmlns="http://www.w3.org/2000/svg">
<path fill-rule="evenodd" clip-rule="evenodd" d="M6.54158 8.41664C6.54158 6.50665 8.08992 4.9583 9.99991 4.9583C11.9099 4.9583 13.4582 6.50665 13.4582 8.41664C13.4582 10.3266 11.9099 11.875 9.99991 11.875C8.08992 11.875 6.54158 10.3266 6.54158 8.41664ZM9.99991 6.04164C8.68823 6.04164 7.62491 7.10496 7.62491 8.41664C7.62491 9.72831 8.68823 10.7916 9.99991 10.7916C11.3116 10.7916 12.3749 9.72831 12.3749 8.41664C12.3749 7.10496 11.3116 6.04164 9.99991 6.04164Z" fill="#505050"/>
<path fill-rule="evenodd" clip-rule="evenodd" d="M9.68622 2.60826C12.4134 2.44356 15.3101 4.03315 15.7405 7.55589C15.7708 7.80397 15.7891 8.03466 15.792 8.24238C15.8077 9.36434 15.4511 10.4995 14.941 11.5486C14.429 12.6015 13.7467 13.5998 13.0723 14.4576C12.3968 15.3169 11.7208 16.0456 11.2143 16.5594C10.9367 16.8409 10.6553 17.1194 10.3595 17.3819C10.1545 17.5635 9.84559 17.563 9.64057 17.3814C9.67775 17.3403 9.64073 17.3815 9.64057 17.3814C9.34545 17.1186 9.06381 16.8407 8.78641 16.5594C8.27987 16.0456 7.60394 15.3169 6.92839 14.4576C6.25403 13.5998 5.57169 12.6015 5.05976 11.5486C4.54966 10.4995 4.19304 9.36434 4.20875 8.24238C4.25839 4.69784 6.96038 2.77287 9.68622 2.60826ZM10.0003 16.2359C9.87747 16.1178 9.72761 15.9709 9.5578 15.7987C9.07117 15.3052 8.42404 14.6072 7.78004 13.788C7.13486 12.9674 6.50119 12.0357 6.03403 11.0749C5.56504 10.1104 5.2795 9.14838 5.29198 8.25755C5.33204 5.39631 7.4678 3.82753 9.75152 3.68962C12.0339 3.55178 14.3186 4.8509 14.6651 7.68727C14.6923 7.90942 14.7065 8.09961 14.7088 8.25755C14.7212 9.14838 14.4357 10.1104 13.9667 11.0749C13.4995 12.0357 12.8659 12.9674 12.2207 13.788C11.5767 14.6072 10.9295 15.3052 10.4429 15.7987C10.2731 15.9709 10.1232 16.1178 10.0003 16.2359Z" fill="#505050"/>
</svg>
