<svg width="20" height="20" viewBox="0 0 20 20" fill="none" xmlns="http://www.w3.org/2000/svg">
<path fill-rule="evenodd" clip-rule="evenodd" d="M3.32813 4.79054C3.32812 4.49138 3.57064 4.24887 3.86979 4.24887L16.1302 4.24887C16.4294 4.24887 16.6719 4.49138 16.6719 4.79054C16.6719 5.08969 16.4294 5.3322 16.1302 5.3322L3.86979 5.33221C3.57064 5.33221 3.32813 5.08969 3.32813 4.79054Z" fill="#505050"/>
<path fill-rule="evenodd" clip-rule="evenodd" d="M3.32813 15.304C3.32812 15.0049 3.57064 14.7624 3.86979 14.7624L16.1302 14.7624C16.4294 14.7624 16.6719 15.0049 16.6719 15.304C16.6719 15.6032 16.4294 15.8457 16.1302 15.8457L3.86979 15.8457C3.57064 15.8457 3.32813 15.6032 3.32813 15.304Z" fill="#505050"/>
<path fill-rule="evenodd" clip-rule="evenodd" d="M3.32816 9.99999C3.32816 9.70084 3.57067 9.45832 3.86983 9.45832L16.1303 9.45832C16.4294 9.45832 16.6719 9.70084 16.6719 9.99999C16.6719 10.2991 16.4294 10.5417 16.1303 10.5417L3.86983 10.5417C3.57067 10.5417 3.32816 10.2991 3.32816 9.99999Z" fill="#505050"/>
</svg>
