<svg width="20" height="20" viewBox="0 0 20 20" fill="none" xmlns="http://www.w3.org/2000/svg">
<path fill-rule="evenodd" clip-rule="evenodd" d="M8.18967 2.5C5.9688 2.5 4.2427 4.43335 4.49346 6.64002L4.71183 8.56165C4.91283 10.3305 6.40947 11.6667 8.18967 11.6667C9.96987 11.6667 11.4665 10.3305 11.6675 8.56165L11.8859 6.64002C12.1366 4.43335 10.4105 2.5 8.18967 2.5ZM10.5911 8.43933L10.8095 6.5177C10.9872 4.95366 9.76378 3.58333 8.18967 3.58333C6.61556 3.58333 5.39213 4.95366 5.56987 6.5177L5.78823 8.43933C5.92702 9.66069 6.96045 10.5833 8.18967 10.5833C9.41889 10.5833 10.4523 9.6607 10.5911 8.43933Z" fill="#505050"/>
<path fill-rule="evenodd" clip-rule="evenodd" d="M6.64497 12.5C4.30148 12.5 2.27241 14.1277 1.76404 16.4153L1.68075 16.7901C1.5998 17.1544 1.87701 17.5 2.2502 17.5H14.1291C14.5023 17.5 14.7795 17.1544 14.6986 16.7901L14.6153 16.4153C14.1069 14.1277 12.0779 12.5 9.73437 12.5H6.64497ZM13.4983 16.4167C13.0191 14.7485 11.4893 13.5833 9.73437 13.5833H6.64497C4.89008 13.5833 3.36028 14.7485 2.88104 16.4167H13.4983Z" fill="#505050"/>
<path d="M11.8102 11.6667C11.4935 11.6667 11.3805 11.2819 11.5789 11.0349C11.618 10.9862 11.6561 10.9368 11.6932 10.8865C11.8299 10.7013 12.0394 10.5836 12.2656 10.5404C13.2864 10.3453 14.0904 9.50632 14.2117 8.43933L14.4301 6.5177C14.5808 5.19109 13.7235 4.00386 12.4992 3.67396C12.2055 3.59482 11.9319 3.43896 11.7407 3.20237C11.6993 3.1512 11.6569 3.10088 11.6135 3.05145C11.4293 2.8416 11.531 2.5 11.8102 2.5C14.0311 2.5 15.7572 4.43335 15.5065 6.64002L15.2881 8.56165C15.0871 10.3305 13.5905 11.6667 11.8102 11.6667Z" fill="#505050"/>
<path d="M16.0952 17.5C15.8097 17.5 15.6061 17.207 15.603 16.9215C15.6001 16.6599 15.7873 16.4167 16.0489 16.4167H17.1189C16.7547 15.149 15.7839 14.1718 14.5686 13.7757C14.3948 13.719 14.248 13.637 14.1355 13.4929C13.8326 13.105 14.0967 12.5305 14.574 12.6503C16.3749 13.1027 17.8183 14.5364 18.2359 16.4153L18.3192 16.7901C18.4001 17.1544 18.1229 17.5 17.7497 17.5H16.0952Z" fill="#505050"/>
</svg>
