<svg width="20" height="20" viewBox="0 0 20 20" fill="none" xmlns="http://www.w3.org/2000/svg">
<path fill-rule="evenodd" clip-rule="evenodd" d="M13.3333 10C13.3333 11.841 11.8409 13.3333 9.99999 13.3333C8.15905 13.3333 6.66666 11.841 6.66666 10C6.66666 8.15906 8.15905 6.66668 9.99999 6.66668C11.8409 6.66668 13.3333 8.15906 13.3333 10ZM12.25 10C12.25 11.2427 11.2426 12.25 9.99999 12.25C8.75735 12.25 7.74999 11.2427 7.74999 10C7.74999 8.75737 8.75735 7.75001 9.99999 7.75001C11.2426 7.75001 12.25 8.75737 12.25 10Z" fill="#505050"/>
<path fill-rule="evenodd" clip-rule="evenodd" d="M9.15254 2.50412C8.41445 2.50412 7.78939 3.04841 7.68791 3.7795C7.56207 4.68617 6.61647 5.23211 5.76835 4.88776C5.08447 4.61009 4.30057 4.87926 3.93152 5.51847L3.13424 6.8994C2.76967 7.53086 2.91982 8.33381 3.48794 8.79085C4.2226 9.38189 4.21051 10.5217 3.45627 11.1089C2.87386 11.5623 2.71502 12.3758 3.08407 13.015L3.88135 14.3959C4.24592 15.0274 5.01637 15.2988 5.69624 15.0354C6.57543 14.6946 7.5565 15.275 7.68791 16.2218C7.78939 16.9529 8.41444 17.4972 9.15254 17.4972H10.7471C11.4762 17.4972 12.0965 16.9657 12.2083 16.2452C12.3603 15.2653 13.3792 14.6771 14.3038 15.0354C14.9836 15.2988 15.7541 15.0274 16.1186 14.3959L16.9159 13.015C17.285 12.3758 17.1261 11.5623 16.5437 11.1089C15.7895 10.5217 15.7774 9.38189 16.5121 8.79085C17.0802 8.33381 17.2303 7.53086 16.8657 6.8994L16.0685 5.51847C15.6994 4.87926 14.9155 4.61009 14.2316 4.88776C13.346 5.24735 12.3528 4.68791 12.2083 3.75615C12.0965 3.03563 11.4762 2.50412 10.7471 2.50412H9.15254ZM8.76096 3.92844C8.78809 3.73297 8.9552 3.58745 9.15254 3.58745L10.7471 3.58745C10.942 3.58745 11.1079 3.72956 11.1378 3.9222C11.3914 5.5574 13.118 6.50913 14.6392 5.89151C14.822 5.81728 15.0316 5.88924 15.1303 6.06014L15.9276 7.44107C16.025 7.6099 15.9849 7.82457 15.833 7.94677C14.5437 8.98402 14.5828 10.9552 15.8782 11.9637C16.0339 12.085 16.0764 12.3025 15.9777 12.4734L15.1804 13.8543C15.083 14.0231 14.877 14.0957 14.6952 14.0252C13.1256 13.4169 11.3958 14.4157 11.1378 16.0791C11.1079 16.2718 10.942 16.4139 10.7471 16.4139H9.15254C8.9552 16.4139 8.78809 16.2684 8.76096 16.0729C8.53525 14.4467 6.84771 13.4273 5.30477 14.0252C5.123 14.0957 4.91701 14.0231 4.81954 13.8543L4.02226 12.4734C3.9236 12.3025 3.96606 12.085 4.12177 11.9637C5.41724 10.9552 5.45631 8.98402 4.167 7.94677C4.01511 7.82457 3.97497 7.60989 4.07244 7.44107L4.86972 6.06014C4.96839 5.88924 5.17797 5.81728 5.36081 5.89151C6.8631 6.50146 8.53805 5.53443 8.76096 3.92844Z" fill="#505050"/>
</svg>
