<svg width="20" height="20" viewBox="0 0 20 20" fill="none" xmlns="http://www.w3.org/2000/svg">
<g clip-path="url(#clip0_2_121)">
<path d="M10 19.3091C15.1413 19.3091 19.3091 15.1413 19.3091 9.99999C19.3091 4.85872 15.1413 0.690903 10 0.690903C4.85874 0.690903 0.690918 4.85872 0.690918 9.99999C0.690918 15.1413 4.85874 19.3091 10 19.3091Z" fill="#505050"/>
<path d="M5.88728 6.58908C5.88728 6.58908 7.36365 8.25817 9.80728 8.5309C9.80728 8.5309 9.69092 7.13453 10.9309 6.35635C10.9309 6.35635 12.2109 5.50181 13.1818 6.74544C13.1818 6.74544 14.1127 6.55272 14.4618 6.31999C14.4618 6.31999 14.1891 6.84726 13.7236 7.30181L14.7709 7.09453L13.8 8.14181C13.8 8.14181 14.1891 11.6727 10.3273 13.5345C10.3273 13.5345 7.32001 14.6218 5.22546 13.1854C5.22546 13.1854 7.78546 12.7964 8.05819 12.2145C8.05819 12.2145 6.69819 12.0582 6.3491 10.8945L7.08728 10.8545C7.08728 10.8545 5.80728 10.7382 5.65092 8.91272L6.50546 9.02908C6.5091 9.03272 5.1491 8.64726 5.88728 6.58908Z" fill="white"/>
</g>
<defs>
<clipPath id="clip0_2_121">
<rect width="20" height="20" fill="white"/>
</clipPath>
</defs>
</svg>
